<svg width="1256" height="1208" viewBox="0 0 942 906" xmlns="http://www.w3.org/2000/svg" xmlns:xlink="http://www.w3.org/1999/xlink">
<g id="graph0" class="graph" transform="translate(1.995244888500767,695.4222539528432) scale(0.49881122212519174)">
<polygon fill="white" stroke="transparent" points="-4,4 -4,-976 1884.49,-976 1884.49,4 -4,4"/>
<!-- broadcaster -->
<g id="node1" class="node">
<title>broadcaster</title>
<ellipse fill="none" stroke="black" cx="921.17" cy="-954" rx="55.58" ry="18"/>
<text text-anchor="middle" x="921.17" y="-949.8" font-family="Times,serif" font-size="14.00">broadcaster</text>
</g>
<!-- tb -->
<g id="node2" class="node">
<title>tb</title>
<ellipse fill="none" stroke="black" cx="233.17" cy="-882" rx="27" ry="18"/>
<text text-anchor="middle" x="233.17" y="-877.8" font-family="Times,serif" font-size="14.00">tb</text>
</g>
<!-- broadcaster&#45;&gt;tb -->
<g id="edge1" class="edge">
<title>broadcaster-&gt;tb</title>
<path fill="none" stroke="black" d="M868.89,-947.68C735.39,-934.1 384.39,-898.39 269.88,-886.73"/>
<polygon fill="black" stroke="black" points="270.16,-883.25 259.86,-885.72 269.45,-890.21 270.16,-883.25"/>
</g>
<!-- dv -->
<g id="node3" class="node">
<title>dv</title>
<ellipse fill="none" stroke="black" cx="621.17" cy="-882" rx="27" ry="18"/>
<text text-anchor="middle" x="621.17" y="-877.8" font-family="Times,serif" font-size="14.00">dv</text>
</g>
<!-- broadcaster&#45;&gt;dv -->
<g id="edge2" class="edge">
<title>broadcaster-&gt;dv</title>
<path fill="none" stroke="black" d="M877.54,-942.82C817.7,-928.86 711.31,-904.03 656.29,-891.2"/>
<polygon fill="black" stroke="black" points="656.85,-887.73 646.32,-888.87 655.26,-894.55 656.85,-887.73"/>
</g>
<!-- qg -->
<g id="node4" class="node">
<title>qg</title>
<ellipse fill="none" stroke="black" cx="1202.17" cy="-882" rx="27" ry="18"/>
<text text-anchor="middle" x="1202.17" y="-877.8" font-family="Times,serif" font-size="14.00">qg</text>
</g>
<!-- broadcaster&#45;&gt;qg -->
<g id="edge3" class="edge">
<title>broadcaster-&gt;qg</title>
<path fill="none" stroke="black" d="M963.84,-942.37C1019.43,-928.52 1115.58,-904.57 1167.12,-891.73"/>
<polygon fill="black" stroke="black" points="1168.25,-895.05 1177.11,-889.24 1166.56,-888.26 1168.25,-895.05"/>
</g>
<!-- lf -->
<g id="node5" class="node">
<title>lf</title>
<ellipse fill="none" stroke="black" cx="1635.17" cy="-882" rx="27" ry="18"/>
<text text-anchor="middle" x="1635.17" y="-877.8" font-family="Times,serif" font-size="14.00">lf</text>
</g>
<!-- broadcaster&#45;&gt;lf -->
<g id="edge4" class="edge">
<title>broadcaster-&gt;lf</title>
<path fill="none" stroke="black" d="M973.67,-947.85C1111.37,-934.35 1480.45,-898.17 1598.39,-886.61"/>
<polygon fill="black" stroke="black" points="1598.76,-890.09 1608.37,-885.63 1598.07,-883.12 1598.76,-890.09"/>
</g>
<!-- th -->
<g id="node6" class="node">
<title>th</title>
<ellipse fill="none" stroke="black" cx="169.17" cy="-810" rx="27" ry="18"/>
<text text-anchor="middle" x="169.17" y="-805.8" font-family="Times,serif" font-size="14.00">th</text>
</g>
<!-- tb&#45;&gt;th -->
<g id="edge92" class="edge">
<title>tb-&gt;th</title>
<path fill="none" stroke="black" d="M219.59,-866.15C210.85,-856.6 199.33,-843.99 189.51,-833.25"/>
<polygon fill="black" stroke="black" points="192.05,-830.84 182.72,-825.82 186.88,-835.57 192.05,-830.84"/>
</g>
<!-- vc -->
<g id="node20" class="node">
<title>vc</title>
<ellipse fill="none" stroke="black" cx="209.17" cy="-666" rx="27" ry="18"/>
<text text-anchor="middle" x="209.17" y="-661.8" font-family="Times,serif" font-size="14.00">vc</text>
</g>
<!-- tb&#45;&gt;vc -->
<g id="edge93" class="edge">
<title>tb-&gt;vc</title>
<path fill="none" stroke="black" d="M227.44,-864.21C219.73,-827.34 209.55,-739.04 207.54,-694.17"/>
<polygon fill="black" stroke="black" points="211.03,-693.89 207.21,-684.01 204.03,-694.12 211.03,-693.89"/>
</g>
<!-- jx -->
<g id="node9" class="node">
<title>jx</title>
<ellipse fill="none" stroke="black" cx="621.17" cy="-810" rx="27" ry="18"/>
<text text-anchor="middle" x="621.17" y="-805.8" font-family="Times,serif" font-size="14.00">jx</text>
</g>
<!-- dv&#45;&gt;jx -->
<g id="edge38" class="edge">
<title>dv-&gt;jx</title>
<path fill="none" stroke="black" d="M615.33,-864.41C614.46,-856.51 614.21,-846.85 614.58,-837.94"/>
<polygon fill="black" stroke="black" points="618.07,-838.18 615.29,-827.96 611.09,-837.68 618.07,-838.18"/>
</g>
<!-- sm -->
<g id="node29" class="node">
<title>sm</title>
<ellipse fill="none" stroke="black" cx="433.17" cy="-738" rx="27" ry="18"/>
<text text-anchor="middle" x="433.17" y="-733.8" font-family="Times,serif" font-size="14.00">sm</text>
</g>
<!-- dv&#45;&gt;sm -->
<g id="edge39" class="edge">
<title>dv-&gt;sm</title>
<path fill="none" stroke="black" d="M603.82,-867.9C570.52,-842.75 497.52,-787.61 458.67,-758.26"/>
<polygon fill="black" stroke="black" points="460.56,-755.31 450.47,-752.07 456.34,-760.89 460.56,-755.31"/>
</g>
<!-- hd -->
<g id="node12" class="node">
<title>hd</title>
<ellipse fill="none" stroke="black" cx="1202.17" cy="-738" rx="27" ry="18"/>
<text text-anchor="middle" x="1202.17" y="-733.8" font-family="Times,serif" font-size="14.00">hd</text>
</g>
<!-- qg&#45;&gt;hd -->
<g id="edge36" class="edge">
<title>qg-&gt;hd</title>
<path fill="none" stroke="black" d="M1197.61,-864.15C1195.02,-839.92 1194.72,-794.96 1196.73,-766.05"/>
<polygon fill="black" stroke="black" points="1200.24,-766.09 1197.61,-755.82 1193.27,-765.49 1200.24,-766.09"/>
</g>
<!-- sj -->
<g id="node32" class="node">
<title>sj</title>
<ellipse fill="none" stroke="black" cx="1266.17" cy="-810" rx="27" ry="18"/>
<text text-anchor="middle" x="1266.17" y="-805.8" font-family="Times,serif" font-size="14.00">sj</text>
</g>
<!-- qg&#45;&gt;sj -->
<g id="edge37" class="edge">
<title>qg-&gt;sj</title>
<path fill="none" stroke="black" d="M1215.74,-866.15C1224.48,-856.6 1236,-843.99 1245.82,-833.25"/>
<polygon fill="black" stroke="black" points="1248.45,-835.57 1252.61,-825.82 1243.28,-830.84 1248.45,-835.57"/>
</g>
<!-- tn -->
<g id="node16" class="node">
<title>tn</title>
<ellipse fill="none" stroke="black" cx="1635.17" cy="-810" rx="27" ry="18"/>
<text text-anchor="middle" x="1635.17" y="-805.8" font-family="Times,serif" font-size="14.00">tn</text>
</g>
<!-- lf&#45;&gt;tn -->
<g id="edge61" class="edge">
<title>lf-&gt;tn</title>
<path fill="none" stroke="black" d="M1629.33,-864.41C1628.46,-856.51 1628.21,-846.85 1628.58,-837.94"/>
<polygon fill="black" stroke="black" points="1632.07,-838.18 1629.29,-827.96 1625.09,-837.68 1632.07,-838.18"/>
</g>
<!-- xv -->
<g id="node49" class="node">
<title>xv</title>
<ellipse fill="none" stroke="black" cx="1823.17" cy="-738" rx="27" ry="18"/>
<text text-anchor="middle" x="1823.17" y="-733.8" font-family="Times,serif" font-size="14.00">xv</text>
</g>
<!-- lf&#45;&gt;xv -->
<g id="edge62" class="edge">
<title>lf-&gt;xv</title>
<path fill="none" stroke="black" d="M1652.52,-867.9C1685.81,-842.75 1758.81,-787.61 1797.66,-758.26"/>
<polygon fill="black" stroke="black" points="1799.99,-760.89 1805.86,-752.07 1795.77,-755.31 1799.99,-760.89"/>
</g>
<!-- gv -->
<g id="node7" class="node">
<title>gv</title>
<ellipse fill="none" stroke="black" cx="131.17" cy="-738" rx="27" ry="18"/>
<text text-anchor="middle" x="131.17" y="-733.8" font-family="Times,serif" font-size="14.00">gv</text>
</g>
<!-- th&#45;&gt;gv -->
<g id="edge5" class="edge">
<title>th-&gt;gv</title>
<path fill="none" stroke="black" d="M160.35,-792.76C155.75,-784.28 150.01,-773.71 144.84,-764.2"/>
<polygon fill="black" stroke="black" points="147.78,-762.27 139.93,-755.15 141.63,-765.61 147.78,-762.27"/>
</g>
<!-- gv&#45;&gt;vc -->
<g id="edge33" class="edge">
<title>gv-&gt;vc</title>
<path fill="none" stroke="black" d="M146.58,-723.17C157.9,-713.01 173.47,-699.03 186.25,-687.56"/>
<polygon fill="black" stroke="black" points="188.68,-690.09 193.79,-680.8 184.01,-684.88 188.68,-690.09"/>
</g>
<!-- bk -->
<g id="node41" class="node">
<title>bk</title>
<ellipse fill="none" stroke="black" cx="57.17" cy="-594" rx="27" ry="18"/>
<text text-anchor="middle" x="57.17" y="-589.8" font-family="Times,serif" font-size="14.00">bk</text>
</g>
<!-- gv&#45;&gt;bk -->
<g id="edge34" class="edge">
<title>gv-&gt;bk</title>
<path fill="none" stroke="black" d="M122.68,-720.71C109.92,-696.23 85.69,-649.74 70.54,-620.67"/>
<polygon fill="black" stroke="black" points="73.51,-618.79 65.78,-611.54 67.3,-622.02 73.51,-618.79"/>
</g>
<!-- dx -->
<g id="node8" class="node">
<title>dx</title>
<ellipse fill="none" stroke="black" cx="604.17" cy="-522" rx="27" ry="18"/>
<text text-anchor="middle" x="604.17" y="-517.8" font-family="Times,serif" font-size="14.00">dx</text>
</g>
<!-- dx&#45;&gt;jx -->
<g id="edge6" class="edge">
<title>dx-&gt;jx</title>
<path fill="none" stroke="black" d="M611.02,-539.86C614.83,-550.12 619.18,-563.6 621.17,-576 632.95,-649.65 627.76,-738.07 623.93,-781.78"/>
<polygon fill="black" stroke="black" points="620.43,-781.62 623,-791.9 627.4,-782.26 620.43,-781.62"/>
</g>
<!-- vs -->
<g id="node10" class="node">
<title>vs</title>
<ellipse fill="none" stroke="black" cx="604.17" cy="-450" rx="27" ry="18"/>
<text text-anchor="middle" x="604.17" y="-445.8" font-family="Times,serif" font-size="14.00">vs</text>
</g>
<!-- dx&#45;&gt;vs -->
<g id="edge7" class="edge">
<title>dx-&gt;vs</title>
<path fill="none" stroke="black" d="M604.17,-503.7C604.17,-495.98 604.17,-486.71 604.17,-478.11"/>
<polygon fill="black" stroke="black" points="607.67,-478.1 604.17,-468.1 600.67,-478.1 607.67,-478.1"/>
</g>
<!-- jx&#45;&gt;dv -->
<g id="edge66" class="edge">
<title>jx-&gt;dv</title>
<path fill="none" stroke="black" d="M627.05,-827.96C627.88,-835.83 628.11,-845.37 627.75,-854.19"/>
<polygon fill="black" stroke="black" points="624.24,-854.18 627.01,-864.41 631.22,-854.69 624.24,-854.18"/>
</g>
<!-- jv -->
<g id="node22" class="node">
<title>jv</title>
<ellipse fill="none" stroke="black" cx="547.17" cy="-666" rx="27" ry="18"/>
<text text-anchor="middle" x="547.17" y="-661.8" font-family="Times,serif" font-size="14.00">jv</text>
</g>
<!-- jx&#45;&gt;jv -->
<g id="edge67" class="edge">
<title>jx-&gt;jv</title>
<path fill="none" stroke="black" d="M610.52,-793.07C603.78,-782.71 595.06,-768.79 588.17,-756 577,-735.28 565.92,-710.95 558.11,-692.98"/>
<polygon fill="black" stroke="black" points="561.28,-691.51 554.12,-683.71 554.85,-694.27 561.28,-691.51"/>
</g>
<!-- xc -->
<g id="node23" class="node">
<title>xc</title>
<ellipse fill="none" stroke="black" cx="585.17" cy="-594" rx="27" ry="18"/>
<text text-anchor="middle" x="585.17" y="-589.8" font-family="Times,serif" font-size="14.00">xc</text>
</g>
<!-- jx&#45;&gt;xc -->
<g id="edge68" class="edge">
<title>jx-&gt;xc</title>
<path fill="none" stroke="black" d="M618.28,-791.85C612.04,-754.74 597.24,-666.75 589.72,-622.05"/>
<polygon fill="black" stroke="black" points="593.13,-621.22 588.01,-611.94 586.22,-622.38 593.13,-621.22"/>
</g>
<!-- jx&#45;&gt;sm -->
<g id="edge69" class="edge">
<title>jx-&gt;sm</title>
<path fill="none" stroke="black" d="M597.62,-800.89C568.48,-790.77 517.42,-772.76 474.17,-756 471.24,-754.87 468.21,-753.67 465.18,-752.45"/>
<polygon fill="black" stroke="black" points="466.23,-749.09 455.65,-748.54 463.58,-755.57 466.23,-749.09"/>
</g>
<!-- kf -->
<g id="node43" class="node">
<title>kf</title>
<ellipse fill="none" stroke="black" cx="557.17" cy="-306" rx="27" ry="18"/>
<text text-anchor="middle" x="557.17" y="-301.8" font-family="Times,serif" font-size="14.00">kf</text>
</g>
<!-- jx&#45;&gt;kf -->
<g id="edge70" class="edge">
<title>jx-&gt;kf</title>
<path fill="none" stroke="black" d="M598.48,-799.91C578.73,-791.08 550.32,-776.07 531.17,-756 476.4,-698.62 454.17,-674.32 454.17,-595 454.17,-595 454.17,-595 454.17,-449 454.17,-396.66 500.58,-350.61 531.09,-325.98"/>
<polygon fill="black" stroke="black" points="533.51,-328.53 539.22,-319.62 529.19,-323.02 533.51,-328.53"/>
</g>
<!-- qm -->
<g id="node47" class="node">
<title>qm</title>
<ellipse fill="none" stroke="black" cx="557.17" cy="-378" rx="27" ry="18"/>
<text text-anchor="middle" x="557.17" y="-373.8" font-family="Times,serif" font-size="14.00">qm</text>
</g>
<!-- jx&#45;&gt;qm -->
<g id="edge71" class="edge">
<title>jx-&gt;qm</title>
<path fill="none" stroke="black" d="M605.96,-795.12C594.83,-784.71 579.58,-769.93 567.17,-756 514.65,-697.07 492.17,-673.94 492.17,-595 492.17,-595 492.17,-595 492.17,-521 492.17,-475.94 519.57,-429.53 538.79,-402.52"/>
<polygon fill="black" stroke="black" points="541.85,-404.27 544.94,-394.13 536.2,-400.13 541.85,-404.27"/>
</g>
<!-- nh -->
<g id="node57" class="node">
<title>nh</title>
<ellipse fill="none" stroke="black" cx="919.17" cy="-666" rx="27" ry="18"/>
<text text-anchor="middle" x="919.17" y="-661.8" font-family="Times,serif" font-size="14.00">nh</text>
</g>
<!-- jx&#45;&gt;nh -->
<g id="edge72" class="edge">
<title>jx-&gt;nh</title>
<path fill="none" stroke="black" d="M648,-806.52C706.38,-800.66 842.58,-784.26 878.17,-756 897.56,-740.59 908.16,-713.92 913.69,-693.78"/>
<polygon fill="black" stroke="black" points="917.12,-694.49 916.14,-683.94 910.33,-692.79 917.12,-694.49"/>
</g>
<!-- vs&#45;&gt;jx -->
<g id="edge49" class="edge">
<title>vs-&gt;jx</title>
<path fill="none" stroke="black" d="M618.08,-465.84C639.52,-490.32 678.17,-541.57 678.17,-593 678.17,-667 678.17,-667 678.17,-667 678.17,-710.91 654.4,-757.33 637.56,-784.7"/>
<polygon fill="black" stroke="black" points="634.55,-782.9 632.16,-793.22 640.47,-786.65 634.55,-782.9"/>
</g>
<!-- vs&#45;&gt;qm -->
<g id="edge50" class="edge">
<title>vs-&gt;qm</title>
<path fill="none" stroke="black" d="M593.5,-433.12C587.61,-424.34 580.17,-413.26 573.56,-403.42"/>
<polygon fill="black" stroke="black" points="576.27,-401.17 567.79,-394.82 570.46,-405.07 576.27,-401.17"/>
</g>
<!-- lj -->
<g id="node11" class="node">
<title>lj</title>
<ellipse fill="none" stroke="black" cx="1210.17" cy="-306" rx="27" ry="18"/>
<text text-anchor="middle" x="1210.17" y="-301.8" font-family="Times,serif" font-size="14.00">lj</text>
</g>
<!-- lj&#45;&gt;hd -->
<g id="edge8" class="edge">
<title>lj-&gt;hd</title>
<path fill="none" stroke="black" d="M1201.3,-323.06C1187.93,-348.82 1164.17,-401.32 1164.17,-449 1164.17,-595 1164.17,-595 1164.17,-595 1164.17,-636.59 1179.57,-682.78 1190.76,-710.86"/>
<polygon fill="black" stroke="black" points="1187.62,-712.42 1194.66,-720.34 1194.09,-709.76 1187.62,-712.42"/>
</g>
<!-- cx -->
<g id="node13" class="node">
<title>cx</title>
<ellipse fill="none" stroke="black" cx="1210.17" cy="-234" rx="27" ry="18"/>
<text text-anchor="middle" x="1210.17" y="-229.8" font-family="Times,serif" font-size="14.00">cx</text>
</g>
<!-- lj&#45;&gt;cx -->
<g id="edge9" class="edge">
<title>lj-&gt;cx</title>
<path fill="none" stroke="black" d="M1210.17,-287.7C1210.17,-279.98 1210.17,-270.71 1210.17,-262.11"/>
<polygon fill="black" stroke="black" points="1213.67,-262.1 1210.17,-252.1 1206.67,-262.1 1213.67,-262.1"/>
</g>
<!-- hd&#45;&gt;qg -->
<g id="edge103" class="edge">
<title>hd-&gt;qg</title>
<path fill="none" stroke="black" d="M1206.72,-755.82C1209.32,-780.05 1209.61,-825 1207.6,-853.93"/>
<polygon fill="black" stroke="black" points="1204.09,-853.89 1206.72,-864.15 1211.07,-854.49 1204.09,-853.89"/>
</g>
<!-- hd&#45;&gt;cx -->
<g id="edge104" class="edge">
<title>hd-&gt;cx</title>
<path fill="none" stroke="black" d="M1228.46,-733.66C1278.03,-726.82 1382.56,-709.68 1407.17,-684 1435.15,-654.8 1426.17,-635.45 1426.17,-595 1426.17,-595 1426.17,-595 1426.17,-377 1426.17,-291.94 1307.77,-255 1246.29,-241.54"/>
<polygon fill="black" stroke="black" points="1246.73,-238.06 1236.22,-239.44 1245.29,-244.91 1246.73,-238.06"/>
</g>
<!-- gk -->
<g id="node25" class="node">
<title>gk</title>
<ellipse fill="none" stroke="black" cx="1238.17" cy="-450" rx="27" ry="18"/>
<text text-anchor="middle" x="1238.17" y="-445.8" font-family="Times,serif" font-size="14.00">gk</text>
</g>
<!-- hd&#45;&gt;gk -->
<g id="edge105" class="edge">
<title>hd-&gt;gk</title>
<path fill="none" stroke="black" d="M1202.23,-719.86C1202.66,-681.05 1205.37,-583.62 1221.17,-504 1222.9,-495.24 1225.6,-485.9 1228.34,-477.53"/>
<polygon fill="black" stroke="black" points="1231.7,-478.52 1231.64,-467.92 1225.08,-476.25 1231.7,-478.52"/>
</g>
<!-- tr -->
<g id="node27" class="node">
<title>tr</title>
<ellipse fill="none" stroke="black" cx="1033.17" cy="-594" rx="27" ry="18"/>
<text text-anchor="middle" x="1033.17" y="-589.8" font-family="Times,serif" font-size="14.00">tr</text>
</g>
<!-- hd&#45;&gt;tr -->
<g id="edge106" class="edge">
<title>hd-&gt;tr</title>
<path fill="none" stroke="black" d="M1176.5,-732.22C1148.22,-725.74 1102.94,-711.67 1074.17,-684 1056.6,-667.11 1045.85,-641.25 1039.8,-621.75"/>
<polygon fill="black" stroke="black" points="1043.1,-620.59 1036.97,-611.95 1036.38,-622.52 1043.1,-620.59"/>
</g>
<!-- ln -->
<g id="node33" class="node">
<title>ln</title>
<ellipse fill="none" stroke="black" cx="1371.17" cy="-666" rx="27" ry="18"/>
<text text-anchor="middle" x="1371.17" y="-661.8" font-family="Times,serif" font-size="14.00">ln</text>
</g>
<!-- hd&#45;&gt;ln -->
<g id="edge107" class="edge">
<title>hd-&gt;ln</title>
<path fill="none" stroke="black" d="M1224.83,-727.62C1250.41,-717.03 1293.28,-699.28 1330.17,-684 1333.06,-682.8 1336.07,-681.55 1339.09,-680.3"/>
<polygon fill="black" stroke="black" points="1340.71,-683.42 1348.61,-676.35 1338.03,-676.95 1340.71,-683.42"/>
</g>
<!-- bs -->
<g id="node48" class="node">
<title>bs</title>
<ellipse fill="none" stroke="black" cx="1238.17" cy="-378" rx="27" ry="18"/>
<text text-anchor="middle" x="1238.17" y="-373.8" font-family="Times,serif" font-size="14.00">bs</text>
</g>
<!-- hd&#45;&gt;bs -->
<g id="edge108" class="edge">
<title>hd-&gt;bs</title>
<path fill="none" stroke="black" d="M1222.48,-725.97C1254,-707.42 1312.97,-666.58 1331.17,-612 1357.39,-533.33 1293.17,-442.81 1258.53,-401.57"/>
<polygon fill="black" stroke="black" points="1261,-399.08 1251.83,-393.77 1255.69,-403.64 1261,-399.08"/>
</g>
<!-- bh -->
<g id="node37" class="node">
<title>bh</title>
<ellipse fill="none" stroke="black" cx="1143.17" cy="-162" rx="27" ry="18"/>
<text text-anchor="middle" x="1143.17" y="-157.8" font-family="Times,serif" font-size="14.00">bh</text>
</g>
<!-- cx&#45;&gt;bh -->
<g id="edge42" class="edge">
<title>cx-&gt;bh</title>
<path fill="none" stroke="black" d="M1196.28,-218.5C1187.03,-208.83 1174.69,-195.94 1164.24,-185.02"/>
<polygon fill="black" stroke="black" points="1166.47,-182.29 1157.03,-177.49 1161.42,-187.13 1166.47,-182.29"/>
</g>
<!-- tt -->
<g id="node14" class="node">
<title>tt</title>
<ellipse fill="none" stroke="black" cx="1671.17" cy="-522" rx="27" ry="18"/>
<text text-anchor="middle" x="1671.17" y="-517.8" font-family="Times,serif" font-size="14.00">tt</text>
</g>
<!-- lp -->
<g id="node15" class="node">
<title>lp</title>
<ellipse fill="none" stroke="black" cx="1633.17" cy="-450" rx="27" ry="18"/>
<text text-anchor="middle" x="1633.17" y="-445.8" font-family="Times,serif" font-size="14.00">lp</text>
</g>
<!-- tt&#45;&gt;lp -->
<g id="edge10" class="edge">
<title>tt-&gt;lp</title>
<path fill="none" stroke="black" d="M1662.35,-504.76C1657.75,-496.28 1652.01,-485.71 1646.84,-476.2"/>
<polygon fill="black" stroke="black" points="1649.78,-474.27 1641.93,-467.15 1643.63,-477.61 1649.78,-474.27"/>
</g>
<!-- tt&#45;&gt;tn -->
<g id="edge11" class="edge">
<title>tt-&gt;tn</title>
<path fill="none" stroke="black" d="M1669.03,-539.94C1663.02,-587.72 1645.89,-723.81 1638.56,-782.04"/>
<polygon fill="black" stroke="black" points="1635.09,-781.61 1637.31,-791.97 1642.03,-782.48 1635.09,-781.61"/>
</g>
<!-- lp&#45;&gt;tn -->
<g id="edge26" class="edge">
<title>lp-&gt;tn</title>
<path fill="none" stroke="black" d="M1629.81,-467.97C1624.85,-494.52 1616.17,-547.56 1616.17,-593 1616.17,-667 1616.17,-667 1616.17,-667 1616.17,-707.36 1623.8,-753.61 1629.39,-782.06"/>
<polygon fill="black" stroke="black" points="1626,-782.94 1631.41,-792.05 1632.86,-781.55 1626,-782.94"/>
</g>
<!-- ng -->
<g id="node34" class="node">
<title>ng</title>
<ellipse fill="none" stroke="black" cx="1595.17" cy="-378" rx="27" ry="18"/>
<text text-anchor="middle" x="1595.17" y="-373.8" font-family="Times,serif" font-size="14.00">ng</text>
</g>
<!-- lp&#45;&gt;ng -->
<g id="edge27" class="edge">
<title>lp-&gt;ng</title>
<path fill="none" stroke="black" d="M1624.35,-432.76C1619.75,-424.28 1614.01,-413.71 1608.84,-404.2"/>
<polygon fill="black" stroke="black" points="1611.78,-402.27 1603.93,-395.15 1605.63,-405.61 1611.78,-402.27"/>
</g>
<!-- tn&#45;&gt;lf -->
<g id="edge75" class="edge">
<title>tn-&gt;lf</title>
<path fill="none" stroke="black" d="M1641.05,-827.96C1641.88,-835.83 1642.11,-845.37 1641.75,-854.19"/>
<polygon fill="black" stroke="black" points="1638.24,-854.18 1641.01,-864.41 1645.22,-854.69 1638.24,-854.18"/>
</g>
<!-- fc -->
<g id="node26" class="node">
<title>fc</title>
<ellipse fill="none" stroke="black" cx="1709.17" cy="-594" rx="27" ry="18"/>
<text text-anchor="middle" x="1709.17" y="-589.8" font-family="Times,serif" font-size="14.00">fc</text>
</g>
<!-- tn&#45;&gt;fc -->
<g id="edge76" class="edge">
<title>tn-&gt;fc</title>
<path fill="none" stroke="black" d="M1646.62,-793.46C1653.69,-783.26 1662.47,-769.36 1668.17,-756 1687.38,-710.95 1699.14,-654.83 1704.89,-622.14"/>
<polygon fill="black" stroke="black" points="1708.38,-622.45 1706.61,-612.01 1701.48,-621.28 1708.38,-622.45"/>
</g>
<!-- tn&#45;&gt;ng -->
<g id="edge77" class="edge">
<title>tn-&gt;ng</title>
<path fill="none" stroke="black" d="M1624.18,-793.22C1607.61,-767.85 1578.17,-715.88 1578.17,-667 1578.17,-667 1578.17,-667 1578.17,-521 1578.17,-480.71 1585,-434.44 1590,-405.96"/>
<polygon fill="black" stroke="black" points="1593.47,-406.43 1591.81,-395.97 1586.58,-405.19 1593.47,-406.43"/>
</g>
<!-- nn -->
<g id="node35" class="node">
<title>nn</title>
<ellipse fill="none" stroke="black" cx="1538.17" cy="-234" rx="27" ry="18"/>
<text text-anchor="middle" x="1538.17" y="-229.8" font-family="Times,serif" font-size="14.00">nn</text>
</g>
<!-- tn&#45;&gt;nn -->
<g id="edge78" class="edge">
<title>tn-&gt;nn</title>
<path fill="none" stroke="black" d="M1613.8,-798.66C1576.2,-778.81 1502.17,-731.52 1502.17,-667 1502.17,-667 1502.17,-667 1502.17,-377 1502.17,-335.55 1516.76,-289.32 1527.36,-261.2"/>
<polygon fill="black" stroke="black" points="1530.69,-262.29 1531.05,-251.7 1524.17,-259.75 1530.69,-262.29"/>
</g>
<!-- tn&#45;&gt;xv -->
<g id="edge79" class="edge">
<title>tn-&gt;xv</title>
<path fill="none" stroke="black" d="M1658.71,-800.89C1687.85,-790.77 1738.91,-772.76 1782.17,-756 1785.09,-754.87 1788.12,-753.67 1791.15,-752.45"/>
<polygon fill="black" stroke="black" points="1792.76,-755.57 1800.69,-748.54 1790.11,-749.09 1792.76,-755.57"/>
</g>
<!-- mz -->
<g id="node50" class="node">
<title>mz</title>
<ellipse fill="none" stroke="black" cx="1747.17" cy="-666" rx="27" ry="18"/>
<text text-anchor="middle" x="1747.17" y="-661.8" font-family="Times,serif" font-size="14.00">mz</text>
</g>
<!-- tn&#45;&gt;mz -->
<g id="edge80" class="edge">
<title>tn-&gt;mz</title>
<path fill="none" stroke="black" d="M1655.4,-797.72C1670.93,-788.24 1692.03,-773.45 1706.17,-756 1721.25,-737.37 1732.15,-712.29 1738.9,-693.5"/>
<polygon fill="black" stroke="black" points="1742.3,-694.38 1742.23,-683.79 1735.68,-692.11 1742.3,-694.38"/>
</g>
<!-- xm -->
<g id="node55" class="node">
<title>xm</title>
<ellipse fill="none" stroke="black" cx="974.17" cy="-738" rx="27" ry="18"/>
<text text-anchor="middle" x="974.17" y="-733.8" font-family="Times,serif" font-size="14.00">xm</text>
</g>
<!-- tn&#45;&gt;xm -->
<g id="edge81" class="edge">
<title>tn-&gt;xm</title>
<path fill="none" stroke="black" d="M1608.44,-806.17C1504.92,-795.21 1130.31,-755.54 1010.96,-742.9"/>
<polygon fill="black" stroke="black" points="1011.18,-739.4 1000.87,-741.83 1010.44,-746.36 1011.18,-739.4"/>
</g>
<!-- bv -->
<g id="node17" class="node">
<title>bv</title>
<ellipse fill="none" stroke="black" cx="699.17" cy="-234" rx="27" ry="18"/>
<text text-anchor="middle" x="699.17" y="-229.8" font-family="Times,serif" font-size="14.00">bv</text>
</g>
<!-- bv&#45;&gt;jx -->
<g id="edge12" class="edge">
<title>bv-&gt;jx</title>
<path fill="none" stroke="black" d="M702.52,-251.97C707.48,-278.52 716.17,-331.56 716.17,-377 716.17,-667 716.17,-667 716.17,-667 716.17,-717.48 674.17,-763.61 646.03,-788.85"/>
<polygon fill="black" stroke="black" points="643.4,-786.5 638.15,-795.7 647.99,-791.78 643.4,-786.5"/>
</g>
<!-- ml -->
<g id="node18" class="node">
<title>ml</title>
<ellipse fill="none" stroke="black" cx="727.17" cy="-162" rx="27" ry="18"/>
<text text-anchor="middle" x="727.17" y="-157.8" font-family="Times,serif" font-size="14.00">ml</text>
</g>
<!-- bv&#45;&gt;ml -->
<g id="edge13" class="edge">
<title>bv-&gt;ml</title>
<path fill="none" stroke="black" d="M705.8,-216.41C709.08,-208.22 713.11,-198.14 716.78,-188.95"/>
<polygon fill="black" stroke="black" points="720.11,-190.05 720.58,-179.47 713.61,-187.45 720.11,-190.05"/>
</g>
<!-- ml&#45;&gt;jx -->
<g id="edge89" class="edge">
<title>ml-&gt;jx</title>
<path fill="none" stroke="black" d="M732.5,-179.85C740.37,-206.25 754.17,-259.08 754.17,-305 754.17,-667 754.17,-667 754.17,-667 754.17,-726.73 690.71,-771.69 651.46,-793.79"/>
<polygon fill="black" stroke="black" points="649.64,-790.8 642.53,-798.66 652.99,-796.95 649.64,-790.8"/>
</g>
<!-- qb -->
<g id="node58" class="node">
<title>qb</title>
<ellipse fill="none" stroke="black" cx="727.17" cy="-90" rx="27" ry="18"/>
<text text-anchor="middle" x="727.17" y="-85.8" font-family="Times,serif" font-size="14.00">qb</text>
</g>
<!-- ml&#45;&gt;qb -->
<g id="edge90" class="edge">
<title>ml-&gt;qb</title>
<path fill="none" stroke="black" d="M727.17,-143.7C727.17,-135.98 727.17,-126.71 727.17,-118.11"/>
<polygon fill="black" stroke="black" points="730.67,-118.1 727.17,-108.1 723.67,-118.1 730.67,-118.1"/>
</g>
<!-- nb -->
<g id="node19" class="node">
<title>nb</title>
<ellipse fill="none" stroke="black" cx="171.17" cy="-378" rx="27" ry="18"/>
<text text-anchor="middle" x="171.17" y="-373.8" font-family="Times,serif" font-size="14.00">nb</text>
</g>
<!-- nb&#45;&gt;vc -->
<g id="edge14" class="edge">
<title>nb-&gt;vc</title>
<path fill="none" stroke="black" d="M173.42,-395.94C179.77,-443.72 197.85,-579.81 205.58,-638.04"/>
<polygon fill="black" stroke="black" points="202.12,-638.51 206.9,-647.97 209.06,-637.59 202.12,-638.51"/>
</g>
<!-- hb -->
<g id="node21" class="node">
<title>hb</title>
<ellipse fill="none" stroke="black" cx="190.17" cy="-306" rx="27" ry="18"/>
<text text-anchor="middle" x="190.17" y="-301.8" font-family="Times,serif" font-size="14.00">hb</text>
</g>
<!-- nb&#45;&gt;hb -->
<g id="edge15" class="edge">
<title>nb-&gt;hb</title>
<path fill="none" stroke="black" d="M175.77,-360.05C177.91,-352.14 180.52,-342.54 182.92,-333.69"/>
<polygon fill="black" stroke="black" points="186.37,-334.36 185.61,-323.79 179.61,-332.52 186.37,-334.36"/>
</g>
<!-- vc&#45;&gt;tb -->
<g id="edge97" class="edge">
<title>vc-&gt;tb</title>
<path fill="none" stroke="black" d="M214.86,-683.64C222.56,-720.37 232.75,-808.67 234.79,-853.66"/>
<polygon fill="black" stroke="black" points="231.3,-853.97 235.12,-863.85 238.29,-853.74 231.3,-853.97"/>
</g>
<!-- vc&#45;&gt;th -->
<g id="edge98" class="edge">
<title>vc-&gt;th</title>
<path fill="none" stroke="black" d="M204.43,-683.82C197.57,-708.15 184.83,-753.4 176.68,-782.31"/>
<polygon fill="black" stroke="black" points="173.25,-781.58 173.91,-792.15 179.99,-783.48 173.25,-781.58"/>
</g>
<!-- vc&#45;&gt;bk -->
<g id="edge99" class="edge">
<title>vc-&gt;bk</title>
<path fill="none" stroke="black" d="M187.39,-654.97C161.43,-643.02 117.85,-622.95 88.33,-609.35"/>
<polygon fill="black" stroke="black" points="89.45,-606.01 78.9,-605.01 86.52,-612.37 89.45,-606.01"/>
</g>
<!-- kk -->
<g id="node46" class="node">
<title>kk</title>
<ellipse fill="none" stroke="black" cx="133.17" cy="-450" rx="27" ry="18"/>
<text text-anchor="middle" x="133.17" y="-445.8" font-family="Times,serif" font-size="14.00">kk</text>
</g>
<!-- vc&#45;&gt;kk -->
<g id="edge100" class="edge">
<title>vc-&gt;kk</title>
<path fill="none" stroke="black" d="M196.97,-649.57C189.45,-639.4 180.14,-625.51 174.17,-612 154.35,-567.21 142.78,-511 137.24,-478.23"/>
<polygon fill="black" stroke="black" points="140.65,-477.38 135.59,-468.07 133.74,-478.5 140.65,-477.38"/>
</g>
<!-- mf -->
<g id="node54" class="node">
<title>mf</title>
<ellipse fill="none" stroke="black" cx="190.17" cy="-234" rx="27" ry="18"/>
<text text-anchor="middle" x="190.17" y="-229.8" font-family="Times,serif" font-size="14.00">mf</text>
</g>
<!-- vc&#45;&gt;mf -->
<g id="edge101" class="edge">
<title>vc-&gt;mf</title>
<path fill="none" stroke="black" d="M182.04,-665.57C141.02,-664.86 63.49,-657.15 21.17,-612 -6.5,-582.49 2.17,-563.45 2.17,-523 2.17,-523 2.17,-523 2.17,-377 2.17,-301.11 100.92,-260.63 155.28,-244.1"/>
<polygon fill="black" stroke="black" points="156.59,-247.37 165.2,-241.2 154.62,-240.65 156.59,-247.37"/>
</g>
<!-- dr -->
<g id="node56" class="node">
<title>dr</title>
<ellipse fill="none" stroke="black" cx="809.17" cy="-594" rx="27" ry="18"/>
<text text-anchor="middle" x="809.17" y="-589.8" font-family="Times,serif" font-size="14.00">dr</text>
</g>
<!-- vc&#45;&gt;dr -->
<g id="edge102" class="edge">
<title>vc-&gt;dr</title>
<path fill="none" stroke="black" d="M235.72,-661.9C331.84,-650.69 661.77,-612.2 772.56,-599.27"/>
<polygon fill="black" stroke="black" points="773.05,-602.74 782.58,-598.1 772.24,-595.78 773.05,-602.74"/>
</g>
<!-- hb&#45;&gt;vc -->
<g id="edge59" class="edge">
<title>hb-&gt;vc</title>
<path fill="none" stroke="black" d="M197.28,-323.7C207.77,-349.89 226.17,-402.46 226.17,-449 226.17,-523 226.17,-523 226.17,-523 226.17,-563.29 219.34,-609.56 214.33,-638.04"/>
<polygon fill="black" stroke="black" points="210.86,-637.57 212.52,-648.03 217.75,-638.81 210.86,-637.57"/>
</g>
<!-- hb&#45;&gt;mf -->
<g id="edge60" class="edge">
<title>hb-&gt;mf</title>
<path fill="none" stroke="black" d="M190.17,-287.7C190.17,-279.98 190.17,-270.71 190.17,-262.11"/>
<polygon fill="black" stroke="black" points="193.67,-262.1 190.17,-252.1 186.67,-262.1 193.67,-262.1"/>
</g>
<!-- jv&#45;&gt;xc -->
<g id="edge16" class="edge">
<title>jv-&gt;xc</title>
<path fill="none" stroke="black" d="M555.98,-648.76C560.58,-640.28 566.32,-629.71 571.49,-620.2"/>
<polygon fill="black" stroke="black" points="574.71,-621.61 576.4,-611.15 568.55,-618.27 574.71,-621.61"/>
</g>
<!-- xc&#45;&gt;dx -->
<g id="edge43" class="edge">
<title>xc-&gt;dx</title>
<path fill="none" stroke="black" d="M589.77,-576.05C591.91,-568.14 594.52,-558.54 596.92,-549.69"/>
<polygon fill="black" stroke="black" points="600.37,-550.36 599.61,-539.79 593.61,-548.52 600.37,-550.36"/>
</g>
<!-- sg -->
<g id="node24" class="node">
<title>sg</title>
<ellipse fill="none" stroke="black" cx="1257.17" cy="-522" rx="27" ry="18"/>
<text text-anchor="middle" x="1257.17" y="-517.8" font-family="Times,serif" font-size="14.00">sg</text>
</g>
<!-- sg&#45;&gt;hd -->
<g id="edge17" class="edge">
<title>sg-&gt;hd</title>
<path fill="none" stroke="black" d="M1252.91,-539.93C1245.51,-569.29 1229.78,-631.51 1216.17,-684 1213.98,-692.42 1211.57,-701.58 1209.38,-709.89"/>
<polygon fill="black" stroke="black" points="1205.92,-709.26 1206.74,-719.82 1212.69,-711.05 1205.92,-709.26"/>
</g>
<!-- sg&#45;&gt;gk -->
<g id="edge18" class="edge">
<title>sg-&gt;gk</title>
<path fill="none" stroke="black" d="M1252.57,-504.05C1250.42,-496.14 1247.81,-486.54 1245.41,-477.69"/>
<polygon fill="black" stroke="black" points="1248.72,-476.52 1242.72,-467.79 1241.96,-478.36 1248.72,-476.52"/>
</g>
<!-- gk&#45;&gt;bs -->
<g id="edge74" class="edge">
<title>gk-&gt;bs</title>
<path fill="none" stroke="black" d="M1238.17,-431.7C1238.17,-423.98 1238.17,-414.71 1238.17,-406.11"/>
<polygon fill="black" stroke="black" points="1241.67,-406.1 1238.17,-396.1 1234.67,-406.1 1241.67,-406.1"/>
</g>
<!-- fc&#45;&gt;tt -->
<g id="edge19" class="edge">
<title>fc-&gt;tt</title>
<path fill="none" stroke="black" d="M1700.35,-576.76C1695.75,-568.28 1690.01,-557.71 1684.84,-548.2"/>
<polygon fill="black" stroke="black" points="1687.78,-546.27 1679.93,-539.15 1681.63,-549.61 1687.78,-546.27"/>
</g>
<!-- dh -->
<g id="node28" class="node">
<title>dh</title>
<ellipse fill="none" stroke="black" cx="967.17" cy="-522" rx="27" ry="18"/>
<text text-anchor="middle" x="967.17" y="-517.8" font-family="Times,serif" font-size="14.00">dh</text>
</g>
<!-- tr&#45;&gt;dh -->
<g id="edge20" class="edge">
<title>tr-&gt;dh</title>
<path fill="none" stroke="black" d="M1019.17,-578.15C1010.16,-568.6 998.27,-555.99 988.14,-545.25"/>
<polygon fill="black" stroke="black" points="990.55,-542.7 981.14,-537.82 985.46,-547.5 990.55,-542.7"/>
</g>
<!-- rx -->
<g id="node59" class="node">
<title>rx</title>
<ellipse fill="none" stroke="black" cx="967.17" cy="-450" rx="27" ry="18"/>
<text text-anchor="middle" x="967.17" y="-445.8" font-family="Times,serif" font-size="14.00">rx</text>
</g>
<!-- dh&#45;&gt;rx -->
<g id="edge109" class="edge">
<title>dh-&gt;rx</title>
<path fill="none" stroke="black" d="M967.17,-503.7C967.17,-495.98 967.17,-486.71 967.17,-478.11"/>
<polygon fill="black" stroke="black" points="970.67,-478.1 967.17,-468.1 963.67,-478.1 970.67,-478.1"/>
</g>
<!-- sm&#45;&gt;jv -->
<g id="edge21" class="edge">
<title>sm-&gt;jv</title>
<path fill="none" stroke="black" d="M452.5,-725.13C470.77,-713.91 498.36,-696.97 519.05,-684.26"/>
<polygon fill="black" stroke="black" points="521.04,-687.15 527.73,-678.93 517.38,-681.18 521.04,-687.15"/>
</g>
<!-- pd -->
<g id="node30" class="node">
<title>pd</title>
<ellipse fill="none" stroke="black" cx="1802.17" cy="-90" rx="27" ry="18"/>
<text text-anchor="middle" x="1802.17" y="-85.8" font-family="Times,serif" font-size="14.00">pd</text>
</g>
<!-- pd&#45;&gt;tn -->
<g id="edge22" class="edge">
<title>pd-&gt;tn</title>
<path fill="none" stroke="black" d="M1802.17,-108.05C1802.17,-134.71 1802.17,-187.89 1802.17,-233 1802.17,-595 1802.17,-595 1802.17,-595 1802.17,-673.38 1788.96,-704.16 1730.17,-756 1711.3,-772.64 1686.34,-786.31 1666.75,-795.6"/>
<polygon fill="black" stroke="black" points="1665.23,-792.44 1657.61,-799.8 1668.15,-798.8 1665.23,-792.44"/>
</g>
<!-- bm -->
<g id="node31" class="node">
<title>bm</title>
<ellipse fill="none" stroke="black" cx="1840.17" cy="-18" rx="27" ry="18"/>
<text text-anchor="middle" x="1840.17" y="-13.8" font-family="Times,serif" font-size="14.00">bm</text>
</g>
<!-- pd&#45;&gt;bm -->
<g id="edge23" class="edge">
<title>pd-&gt;bm</title>
<path fill="none" stroke="black" d="M1810.98,-72.76C1815.58,-64.28 1821.32,-53.71 1826.49,-44.2"/>
<polygon fill="black" stroke="black" points="1829.71,-45.61 1831.4,-35.15 1823.55,-42.27 1829.71,-45.61"/>
</g>
<!-- bm&#45;&gt;tn -->
<g id="edge96" class="edge">
<title>bm-&gt;tn</title>
<path fill="none" stroke="black" d="M1847.67,-35.66C1858.75,-61.8 1878.17,-114.3 1878.17,-161 1878.17,-667 1878.17,-667 1878.17,-667 1878.17,-707.45 1887.45,-727.09 1859.17,-756 1833.38,-782.36 1728.4,-798.25 1671.78,-805.08"/>
<polygon fill="black" stroke="black" points="1671.32,-801.6 1661.8,-806.24 1672.14,-808.56 1671.32,-801.6"/>
</g>
<!-- sj&#45;&gt;hd -->
<g id="edge24" class="edge">
<title>sj-&gt;hd</title>
<path fill="none" stroke="black" d="M1252.59,-794.15C1243.85,-784.6 1232.33,-771.99 1222.51,-761.25"/>
<polygon fill="black" stroke="black" points="1225.05,-758.84 1215.72,-753.82 1219.88,-763.57 1225.05,-758.84"/>
</g>
<!-- sj&#45;&gt;ln -->
<g id="edge25" class="edge">
<title>sj-&gt;ln</title>
<path fill="none" stroke="black" d="M1277.6,-793.53C1295.91,-768.78 1331.92,-720.08 1353.53,-690.85"/>
<polygon fill="black" stroke="black" points="1356.61,-692.57 1359.74,-682.45 1350.98,-688.41 1356.61,-692.57"/>
</g>
<!-- ps -->
<g id="node53" class="node">
<title>ps</title>
<ellipse fill="none" stroke="black" cx="1295.17" cy="-594" rx="27" ry="18"/>
<text text-anchor="middle" x="1295.17" y="-589.8" font-family="Times,serif" font-size="14.00">ps</text>
</g>
<!-- ln&#45;&gt;ps -->
<g id="edge58" class="edge">
<title>ln-&gt;ps</title>
<path fill="none" stroke="black" d="M1355.79,-650.83C1344.97,-640.87 1330.31,-627.37 1318.11,-616.14"/>
<polygon fill="black" stroke="black" points="1320.25,-613.34 1310.52,-609.14 1315.51,-618.49 1320.25,-613.34"/>
</g>
<!-- gp -->
<g id="node44" class="node">
<title>gp</title>
<ellipse fill="none" stroke="black" cx="1557.17" cy="-306" rx="27" ry="18"/>
<text text-anchor="middle" x="1557.17" y="-301.8" font-family="Times,serif" font-size="14.00">gp</text>
</g>
<!-- ng&#45;&gt;gp -->
<g id="edge55" class="edge">
<title>ng-&gt;gp</title>
<path fill="none" stroke="black" d="M1586.35,-360.76C1581.75,-352.28 1576.01,-341.71 1570.84,-332.2"/>
<polygon fill="black" stroke="black" points="1573.78,-330.27 1565.93,-323.15 1567.63,-333.61 1573.78,-330.27"/>
</g>
<!-- nv -->
<g id="node36" class="node">
<title>nv</title>
<ellipse fill="none" stroke="black" cx="1538.17" cy="-162" rx="27" ry="18"/>
<text text-anchor="middle" x="1538.17" y="-157.8" font-family="Times,serif" font-size="14.00">nv</text>
</g>
<!-- nn&#45;&gt;nv -->
<g id="edge28" class="edge">
<title>nn-&gt;nv</title>
<path fill="none" stroke="black" d="M1538.17,-215.7C1538.17,-207.98 1538.17,-198.71 1538.17,-190.11"/>
<polygon fill="black" stroke="black" points="1541.67,-190.1 1538.17,-180.1 1534.67,-190.1 1541.67,-190.1"/>
</g>
<!-- nv&#45;&gt;tn -->
<g id="edge87" class="edge">
<title>nv-&gt;tn</title>
<path fill="none" stroke="black" d="M1524.25,-177.84C1502.81,-202.32 1464.17,-253.57 1464.17,-305 1464.17,-667 1464.17,-667 1464.17,-667 1464.17,-713.04 1482.8,-725.37 1517.17,-756 1541.14,-777.37 1575.16,-791.4 1600.51,-799.63"/>
<polygon fill="black" stroke="black" points="1599.52,-802.99 1610.11,-802.6 1601.59,-796.3 1599.52,-802.99"/>
</g>
<!-- nv&#45;&gt;pd -->
<g id="edge88" class="edge">
<title>nv-&gt;pd</title>
<path fill="none" stroke="black" d="M1563,-154.41C1610.39,-141.85 1713.8,-114.43 1767.79,-100.11"/>
<polygon fill="black" stroke="black" points="1768.82,-103.46 1777.59,-97.52 1767.02,-96.7 1768.82,-103.46"/>
</g>
<!-- bh&#45;&gt;hd -->
<g id="edge29" class="edge">
<title>bh-&gt;hd</title>
<path fill="none" stroke="black" d="M1139.81,-179.97C1134.85,-206.52 1126.17,-259.56 1126.17,-305 1126.17,-595 1126.17,-595 1126.17,-595 1126.17,-641.88 1158.76,-688.26 1181.26,-714.69"/>
<polygon fill="black" stroke="black" points="1178.65,-717.02 1187.87,-722.23 1183.91,-712.4 1178.65,-717.02"/>
</g>
<!-- cp -->
<g id="node38" class="node">
<title>cp</title>
<ellipse fill="none" stroke="black" cx="1088.17" cy="-90" rx="27" ry="18"/>
<text text-anchor="middle" x="1088.17" y="-85.8" font-family="Times,serif" font-size="14.00">cp</text>
</g>
<!-- bh&#45;&gt;cp -->
<g id="edge30" class="edge">
<title>bh-&gt;cp</title>
<path fill="none" stroke="black" d="M1131.23,-145.81C1123.95,-136.55 1114.5,-124.52 1106.31,-114.09"/>
<polygon fill="black" stroke="black" points="1109.01,-111.86 1100.08,-106.16 1103.5,-116.18 1109.01,-111.86"/>
</g>
<!-- cp&#45;&gt;hd -->
<g id="edge40" class="edge">
<title>cp-&gt;hd</title>
<path fill="none" stroke="black" d="M1088.17,-108.05C1088.17,-134.71 1088.17,-187.89 1088.17,-233 1088.17,-595 1088.17,-595 1088.17,-595 1088.17,-649.85 1140.53,-695.58 1174.28,-719.35"/>
<polygon fill="black" stroke="black" points="1172.6,-722.44 1182.83,-725.19 1176.54,-716.66 1172.6,-722.44"/>
</g>
<!-- sc -->
<g id="node42" class="node">
<title>sc</title>
<ellipse fill="none" stroke="black" cx="1012.17" cy="-18" rx="27" ry="18"/>
<text text-anchor="middle" x="1012.17" y="-13.8" font-family="Times,serif" font-size="14.00">sc</text>
</g>
<!-- cp&#45;&gt;sc -->
<g id="edge41" class="edge">
<title>cp-&gt;sc</title>
<path fill="none" stroke="black" d="M1072.79,-74.83C1061.97,-64.87 1047.31,-51.37 1035.11,-40.14"/>
<polygon fill="black" stroke="black" points="1037.25,-37.34 1027.52,-33.14 1032.51,-42.49 1037.25,-37.34"/>
</g>
<!-- lg -->
<g id="node39" class="node">
<title>lg</title>
<ellipse fill="none" stroke="black" cx="247.17" cy="-162" rx="27" ry="18"/>
<text text-anchor="middle" x="247.17" y="-157.8" font-family="Times,serif" font-size="14.00">lg</text>
</g>
<!-- lg&#45;&gt;vc -->
<g id="edge31" class="edge">
<title>lg-&gt;vc</title>
<path fill="none" stroke="black" d="M250.52,-179.97C255.48,-206.52 264.17,-259.56 264.17,-305 264.17,-523 264.17,-523 264.17,-523 264.17,-566.7 241.23,-613.18 224.98,-640.62"/>
<polygon fill="black" stroke="black" points="221.99,-638.8 219.77,-649.16 227.97,-642.45 221.99,-638.8"/>
</g>
<!-- tz -->
<g id="node40" class="node">
<title>tz</title>
<ellipse fill="none" stroke="black" cx="285.17" cy="-90" rx="27" ry="18"/>
<text text-anchor="middle" x="285.17" y="-85.8" font-family="Times,serif" font-size="14.00">tz</text>
</g>
<!-- lg&#45;&gt;tz -->
<g id="edge32" class="edge">
<title>lg-&gt;tz</title>
<path fill="none" stroke="black" d="M255.98,-144.76C260.58,-136.28 266.32,-125.71 271.49,-116.2"/>
<polygon fill="black" stroke="black" points="274.71,-117.61 276.4,-107.15 268.55,-114.27 274.71,-117.61"/>
</g>
<!-- tz&#45;&gt;vc -->
<g id="edge85" class="edge">
<title>tz-&gt;vc</title>
<path fill="none" stroke="black" d="M288.52,-107.97C293.48,-134.52 302.17,-187.56 302.17,-233 302.17,-523 302.17,-523 302.17,-523 302.17,-573.16 261.06,-619.39 233.5,-644.74"/>
<polygon fill="black" stroke="black" points="230.92,-642.35 225.79,-651.62 235.58,-647.58 230.92,-642.35"/>
</g>
<!-- mc -->
<g id="node51" class="node">
<title>mc</title>
<ellipse fill="none" stroke="black" cx="313.17" cy="-18" rx="27" ry="18"/>
<text text-anchor="middle" x="313.17" y="-13.8" font-family="Times,serif" font-size="14.00">mc</text>
</g>
<!-- tz&#45;&gt;mc -->
<g id="edge86" class="edge">
<title>tz-&gt;mc</title>
<path fill="none" stroke="black" d="M291.8,-72.41C295.08,-64.22 299.11,-54.14 302.78,-44.95"/>
<polygon fill="black" stroke="black" points="306.11,-46.05 306.58,-35.47 299.61,-43.45 306.11,-46.05"/>
</g>
<!-- nc -->
<g id="node45" class="node">
<title>nc</title>
<ellipse fill="none" stroke="black" cx="95.17" cy="-522" rx="27" ry="18"/>
<text text-anchor="middle" x="95.17" y="-517.8" font-family="Times,serif" font-size="14.00">nc</text>
</g>
<!-- bk&#45;&gt;nc -->
<g id="edge73" class="edge">
<title>bk-&gt;nc</title>
<path fill="none" stroke="black" d="M65.98,-576.76C70.58,-568.28 76.32,-557.71 81.49,-548.2"/>
<polygon fill="black" stroke="black" points="84.71,-549.61 86.4,-539.15 78.55,-546.27 84.71,-549.61"/>
</g>
<!-- sc&#45;&gt;hd -->
<g id="edge35" class="edge">
<title>sc-&gt;hd</title>
<path fill="none" stroke="black" d="M993.01,-31.33C961.49,-53.27 902.17,-102.37 902.17,-161 902.17,-523 902.17,-523 902.17,-523 902.17,-651.58 1087.06,-710.17 1166.55,-729.41"/>
<polygon fill="black" stroke="black" points="1166.05,-732.89 1176.59,-731.77 1167.65,-726.08 1166.05,-732.89"/>
</g>
<!-- kf&#45;&gt;bv -->
<g id="edge44" class="edge">
<title>kf-&gt;bv</title>
<path fill="none" stroke="black" d="M578.42,-294.52C602.37,-282.72 641.49,-263.43 668.68,-250.03"/>
<polygon fill="black" stroke="black" points="670.34,-253.11 677.76,-245.55 667.24,-246.83 670.34,-253.11"/>
</g>
<!-- gp&#45;&gt;tn -->
<g id="edge45" class="edge">
<title>gp-&gt;tn</title>
<path fill="none" stroke="black" d="M1553.81,-323.97C1548.85,-350.52 1540.17,-403.56 1540.17,-449 1540.17,-667 1540.17,-667 1540.17,-667 1540.17,-717.48 1582.16,-763.61 1610.3,-788.85"/>
<polygon fill="black" stroke="black" points="1608.34,-791.78 1618.18,-795.7 1612.93,-786.5 1608.34,-791.78"/>
</g>
<!-- gp&#45;&gt;nn -->
<g id="edge46" class="edge">
<title>gp-&gt;nn</title>
<path fill="none" stroke="black" d="M1552.57,-288.05C1550.42,-280.14 1547.81,-270.54 1545.41,-261.69"/>
<polygon fill="black" stroke="black" points="1548.72,-260.52 1542.72,-251.79 1541.96,-262.36 1548.72,-260.52"/>
</g>
<!-- nc&#45;&gt;vc -->
<g id="edge47" class="edge">
<title>nc-&gt;vc</title>
<path fill="none" stroke="black" d="M100.05,-539.83C106.19,-558.86 118.14,-590.04 136.17,-612 148.26,-626.74 165.36,-639.44 179.97,-648.72"/>
<polygon fill="black" stroke="black" points="178.32,-651.81 188.68,-654.04 181.97,-645.84 178.32,-651.81"/>
</g>
<!-- nc&#45;&gt;kk -->
<g id="edge48" class="edge">
<title>nc-&gt;kk</title>
<path fill="none" stroke="black" d="M103.98,-504.76C108.58,-496.28 114.32,-485.71 119.49,-476.2"/>
<polygon fill="black" stroke="black" points="122.71,-477.61 124.4,-467.15 116.55,-474.27 122.71,-477.61"/>
</g>
<!-- kk&#45;&gt;nb -->
<g id="edge54" class="edge">
<title>kk-&gt;nb</title>
<path fill="none" stroke="black" d="M141.98,-432.76C146.58,-424.28 152.32,-413.71 157.49,-404.2"/>
<polygon fill="black" stroke="black" points="160.71,-405.61 162.4,-395.15 154.55,-402.27 160.71,-405.61"/>
</g>
<!-- qm&#45;&gt;kf -->
<g id="edge82" class="edge">
<title>qm-&gt;kf</title>
<path fill="none" stroke="black" d="M557.17,-359.7C557.17,-351.98 557.17,-342.71 557.17,-334.11"/>
<polygon fill="black" stroke="black" points="560.67,-334.1 557.17,-324.1 553.67,-334.1 560.67,-334.1"/>
</g>
<!-- bs&#45;&gt;lj -->
<g id="edge51" class="edge">
<title>bs-&gt;lj</title>
<path fill="none" stroke="black" d="M1231.53,-360.41C1228.25,-352.22 1224.22,-342.14 1220.55,-332.95"/>
<polygon fill="black" stroke="black" points="1223.72,-331.45 1216.75,-323.47 1217.22,-334.05 1223.72,-331.45"/>
</g>
<!-- xv&#45;&gt;mz -->
<g id="edge52" class="edge">
<title>xv-&gt;mz</title>
<path fill="none" stroke="black" d="M1807.79,-722.83C1796.97,-712.87 1782.31,-699.37 1770.11,-688.14"/>
<polygon fill="black" stroke="black" points="1772.25,-685.34 1762.52,-681.14 1767.51,-690.49 1772.25,-685.34"/>
</g>
<!-- mz&#45;&gt;fc -->
<g id="edge56" class="edge">
<title>mz-&gt;fc</title>
<path fill="none" stroke="black" d="M1738.35,-648.76C1733.75,-640.28 1728.01,-629.71 1722.84,-620.2"/>
<polygon fill="black" stroke="black" points="1725.78,-618.27 1717.93,-611.15 1719.63,-621.61 1725.78,-618.27"/>
</g>
<!-- mc&#45;&gt;vc -->
<g id="edge53" class="edge">
<title>mc-&gt;vc</title>
<path fill="none" stroke="black" d="M318.5,-35.85C326.37,-62.25 340.17,-115.08 340.17,-161 340.17,-523 340.17,-523 340.17,-523 340.17,-582.31 277.67,-627.43 239.01,-649.67"/>
<polygon fill="black" stroke="black" points="237.24,-646.65 230.21,-654.58 240.65,-652.76 237.24,-646.65"/>
</g>
<!-- bt -->
<g id="node52" class="node">
<title>bt</title>
<ellipse fill="none" stroke="black" cx="809.17" cy="-18" rx="27" ry="18"/>
<text text-anchor="middle" x="809.17" y="-13.8" font-family="Times,serif" font-size="14.00">bt</text>
</g>
<!-- bt&#45;&gt;jx -->
<g id="edge57" class="edge">
<title>bt-&gt;jx</title>
<path fill="none" stroke="black" d="M819.77,-34.84C835.75,-60.28 864.17,-112.36 864.17,-161 864.17,-667 864.17,-667 864.17,-667 864.17,-761.39 725.81,-794.18 657.9,-804.59"/>
<polygon fill="black" stroke="black" points="657.03,-801.18 647.63,-806.08 658.03,-808.11 657.03,-801.18"/>
</g>
<!-- ps&#45;&gt;hd -->
<g id="edge83" class="edge">
<title>ps-&gt;hd</title>
<path fill="none" stroke="black" d="M1289.47,-611.65C1282.68,-630.23 1270.2,-660.75 1254.17,-684 1246.08,-695.72 1235.29,-707.2 1225.64,-716.45"/>
<polygon fill="black" stroke="black" points="1223.14,-713.99 1218.21,-723.37 1227.91,-719.12 1223.14,-713.99"/>
</g>
<!-- ps&#45;&gt;sg -->
<g id="edge84" class="edge">
<title>ps-&gt;sg</title>
<path fill="none" stroke="black" d="M1286.35,-576.76C1281.75,-568.28 1276.01,-557.71 1270.84,-548.2"/>
<polygon fill="black" stroke="black" points="1273.78,-546.27 1265.93,-539.15 1267.63,-549.61 1273.78,-546.27"/>
</g>
<!-- mf&#45;&gt;lg -->
<g id="edge64" class="edge">
<title>mf-&gt;lg</title>
<path fill="none" stroke="black" d="M202.53,-217.81C210.08,-208.55 219.87,-196.52 228.36,-186.09"/>
<polygon fill="black" stroke="black" points="231.22,-188.12 234.82,-178.16 225.79,-183.7 231.22,-188.12"/>
</g>
<!-- xm&#45;&gt;dh -->
<g id="edge63" class="edge">
<title>xm-&gt;dh</title>
<path fill="none" stroke="black" d="M973.6,-719.85C972.39,-682.83 969.53,-595.18 968.06,-550.39"/>
<polygon fill="black" stroke="black" points="971.55,-550.11 967.73,-540.23 964.56,-550.34 971.55,-550.11"/>
</g>
<!-- dr&#45;&gt;dh -->
<g id="edge65" class="edge">
<title>dr-&gt;dh</title>
<path fill="none" stroke="black" d="M831.14,-583.27C858.37,-571.2 904.98,-550.55 935.93,-536.84"/>
<polygon fill="black" stroke="black" points="937.66,-539.9 945.38,-532.65 934.82,-533.5 937.66,-539.9"/>
</g>
<!-- nh&#45;&gt;dh -->
<g id="edge91" class="edge">
<title>nh-&gt;dh</title>
<path fill="none" stroke="black" d="M924.86,-648.15C933.09,-623.81 948.38,-578.57 958.15,-549.67"/>
<polygon fill="black" stroke="black" points="961.59,-550.42 961.48,-539.82 954.96,-548.18 961.59,-550.42"/>
</g>
<!-- qb&#45;&gt;jx -->
<g id="edge94" class="edge">
<title>qb-&gt;jx</title>
<path fill="none" stroke="black" d="M701.5,-95.67C620.91,-111.05 378.17,-163.17 378.17,-233 378.17,-667 378.17,-667 378.17,-667 378.17,-707.45 368.88,-727.09 397.17,-756 422.95,-782.36 527.93,-798.25 584.55,-805.08"/>
<polygon fill="black" stroke="black" points="584.19,-808.56 594.53,-806.24 585.01,-801.6 584.19,-808.56"/>
</g>
<!-- qb&#45;&gt;bt -->
<g id="edge95" class="edge">
<title>qb-&gt;bt</title>
<path fill="none" stroke="black" d="M743.37,-75.17C755.35,-64.94 771.86,-50.85 785.34,-39.34"/>
<polygon fill="black" stroke="black" points="787.94,-41.72 793.28,-32.56 783.4,-36.39 787.94,-41.72"/>
</g>
</g>
</svg>